<svg width="37" height="40" fill="none"><path d="M18.1 40a6.47 6.47 0 0 1-3.22-.84l-11.67-6.8A6.52 6.52 0 0 1 0 26.73V13.19a6.6 6.6 0 0 1 3.21-5.61L14.88.84a6.55 6.55 0 0 1 6.43 0l11.67 6.74a6.52 6.52 0 0 1 3.2 5.61v13.55a6.6 6.6 0 0 1-3.2 5.61L21.3 39.1c-.98.63-2.1.91-3.22.91Zm0-37.61c-.7 0-1.4.2-2.03.56L4.4 9.68a4.07 4.07 0 0 0-2.02 3.51v13.55c0 1.47.76 2.8 2.02 3.5l11.67 6.81c1.26.7 2.8.7 4.05 0l11.67-6.73a4.07 4.07 0 0 0 2.02-3.51V13.19c0-1.47-.76-2.8-2.02-3.5L20.12 2.87a4.12 4.12 0 0 0-2.03-.5Z" /><path d="M16.44 27.2v-7.13H14.4V17.5h2.04v-2.2c0-1.72 1.2-3.3 3.99-3.3 1.12 0 1.96.1 1.96.1l-.07 2.4-1.77-.01c-1 0-1.17.43-1.17 1.13v1.88h3.02l-.13 2.57h-2.89v7.13h-2.94Z" /></svg>