<svg width="37" height="40" fill="none"><path d="M18.1 40a6.47 6.47 0 0 1-3.22-.84l-11.67-6.8A6.52 6.52 0 0 1 0 26.73V13.19a6.6 6.6 0 0 1 3.21-5.61L14.88.84a6.55 6.55 0 0 1 6.43 0l11.67 6.74a6.52 6.52 0 0 1 3.2 5.61v13.55a6.6 6.6 0 0 1-3.2 5.61L21.3 39.1c-.98.63-2.1.91-3.22.91Zm0-37.61c-.7 0-1.4.2-2.03.56L4.4 9.68a4.07 4.07 0 0 0-2.02 3.51v13.55c0 1.47.76 2.8 2.02 3.5l11.67 6.81c1.26.7 2.8.7 4.05 0l11.67-6.73a4.07 4.07 0 0 0 2.02-3.51V13.19c0-1.47-.76-2.8-2.02-3.5L20.12 2.87a4.12 4.12 0 0 0-2.03-.5Z" /><path fill-rule="evenodd" clip-rule="evenodd" d="M15.82 14.04c.7-.03.91-.04 2.68-.04s1.99 0 2.68.04c.7.03 1.16.14 1.58.3.43.16.82.42 1.15.75.33.33.59.72.75 1.15.16.42.27.89.3 1.58.03.7.04.91.04 2.68s0 1.99-.04 2.68c-.03.7-.14 1.16-.3 1.58-.16.43-.42.82-.75 1.15-.33.33-.72.59-1.15.75-.42.16-.89.27-1.58.3-.7.03-.91.04-2.68.04s-1.99 0-2.68-.04a4.77 4.77 0 0 1-1.58-.3 3.2 3.2 0 0 1-1.15-.75 3.19 3.19 0 0 1-.75-1.15 4.8 4.8 0 0 1-.3-1.58c-.03-.7-.04-.91-.04-2.68s0-1.99.04-2.68c.03-.7.14-1.16.3-1.58.16-.43.42-.82.75-1.15.33-.33.72-.59 1.15-.75a4.8 4.8 0 0 1 1.58-.3Zm5.3 1.17c-.68-.03-.88-.04-2.62-.04-1.74 0-1.94 0-2.63.04a3.6 3.6 0 0 0-1.2.22c-.3.12-.52.26-.75.49-.22.2-.38.46-.49.75-.09.23-.2.57-.22 1.2-.03.69-.04.9-.04 2.63 0 1.74 0 1.94.04 2.63.03.63.13.97.22 1.2.1.29.27.54.49.75.2.22.46.38.75.49.23.09.57.2 1.2.22.69.03.9.04 2.63.04 1.74 0 1.94 0 2.63-.04a3.6 3.6 0 0 0 1.2-.22c.3-.12.52-.26.75-.49.22-.2.38-.46.49-.75.09-.23.2-.57.22-1.2.03-.69.04-.9.04-2.63 0-1.74 0-1.94-.04-2.63a3.6 3.6 0 0 0-.22-1.2c-.12-.3-.26-.52-.49-.75a2.02 2.02 0 0 0-.75-.49 3.6 3.6 0 0 0-1.2-.22Zm-3.45 7.3a2.17 2.17 0 1 0 1.67-4.01 2.17 2.17 0 0 0-1.67 4Zm-1.53-4.37a3.34 3.34 0 1 1 4.72 4.73 3.34 3.34 0 0 1-4.72-4.73Zm6.44-.48a.79.79 0 1 0-1.08-1.15.79.79 0 0 0 1.08 1.15Z" /></svg>