<svg width="37" height="40" fill="none"><path d="m22 13.05-8.86 3.26c-.6.23-.6.55-.11.7l2.27.67 5.26-3.16c.25-.15.48-.07.3.09l-4.27 3.67-.16 2.24c.23 0 .33-.1.46-.22l1.1-1.03 2.3 1.62c.43.22.73.1.84-.37l1.5-6.78c.16-.6-.23-.86-.63-.69ZM13.9 24.42h-.81a.86.86 0 0 0-.4-.45 1.2 1.2 0 0 0-.63-.16 1.2 1.2 0 0 0-1.2 1.25c0 .4.12.7.36.92a1.2 1.2 0 0 0 1.45.16c.2-.13.33-.3.42-.53h.83c-.1.46-.32.82-.68 1.08-.35.25-.75.37-1.2.37-.56 0-1.03-.17-1.44-.52-.4-.36-.6-.85-.6-1.48a2 2 0 0 1 .3-1.1c.2-.32.46-.55.76-.7.3-.15.62-.22.96-.23.45 0 .85.12 1.2.36s.57.59.68 1.03ZM18 27h-.88v-2.28c0-.3-.07-.55-.23-.71a.9.9 0 0 0-.66-.26c-.3 0-.53.1-.71.28a.98.98 0 0 0-.28.74V27h-.88v-5.85h.88v2.47c.27-.38.69-.56 1.24-.56.5 0 .89.15 1.14.44.26.3.38.7.38 1.22V27ZM21.2 26.35a1.2 1.2 0 0 1-.58.55c-.26.11-.54.17-.84.17-.38 0-.7-.1-.98-.33-.27-.21-.4-.5-.4-.87-.02-.44.12-.78.4-1 .28-.24.64-.36 1.09-.36.42 0 .8.1 1.14.29v-.38c0-.24-.09-.41-.28-.53-.18-.12-.4-.18-.65-.17-.25 0-.5.03-.73.08-.23.05-.42.1-.55.18l-.13-.63c.4-.2.87-.3 1.42-.3.53 0 .95.1 1.28.33.33.21.5.56.5 1.06v1.78l.03.16c.03.07.07.1.12.12.06.02.14.02.24.01l.02.5c-.21.03-.4.05-.55.05a.5.5 0 0 1-.4-.17c-.1-.12-.15-.3-.16-.54Zm-.17-.67v-.32a1.82 1.82 0 0 0-1-.26.86.86 0 0 0-.56.2.66.66 0 0 0-.22.52c0 .19.07.32.2.42.15.1.31.14.5.14.26 0 .5-.05.7-.17.21-.12.34-.3.38-.53ZM23.84 21.96v1.2h1.34v.62h-1.34v1.73c0 .84.47 1.1 1.41.77l.09.66c-.34.1-.65.16-.93.16s-.52-.05-.74-.15a1.1 1.1 0 0 1-.5-.51 2.07 2.07 0 0 1-.18-.91v-1.75l-.79-.06v-.57H23l.08-1.19h.77Z" /><path d="M18.1 40a6.47 6.47 0 0 1-3.22-.84l-11.67-6.8A6.52 6.52 0 0 1 0 26.73V13.19a6.6 6.6 0 0 1 3.21-5.61L14.88.84a6.55 6.55 0 0 1 6.43 0l11.67 6.74a6.52 6.52 0 0 1 3.2 5.61v13.55a6.6 6.6 0 0 1-3.2 5.61L21.3 39.1c-.98.63-2.1.91-3.22.91Zm0-37.61c-.7 0-1.4.2-2.03.56L4.4 9.68a4.07 4.07 0 0 0-2.02 3.51v13.55c0 1.47.76 2.8 2.02 3.5l11.67 6.81c1.26.7 2.8.7 4.05 0l11.67-6.73a4.07 4.07 0 0 0 2.02-3.51V13.19c0-1.47-.76-2.8-2.02-3.5L20.12 2.87a4.12 4.12 0 0 0-2.03-.5Z" /></svg>