<svg width="37" height="40" fill="none"><path d="M24 16.34a5 5 0 0 1-1.41.38c.51-.3.9-.78 1.08-1.34-.48.28-1.01.48-1.56.59a2.48 2.48 0 0 0-4.05.66 2.39 2.39 0 0 0-.15 1.55 7.08 7.08 0 0 1-5.07-2.53 2.4 2.4 0 0 0 .76 3.23c-.4-.01-.78-.12-1.12-.3v.03c0 .56.2 1.1.56 1.53.36.44.86.73 1.42.84-.37.1-.75.12-1.11.05.15.48.46.9.87 1.2.41.3.91.47 1.43.48a5 5 0 0 1-3.65 1 7.05 7.05 0 0 0 3.77 1.09 6.9 6.9 0 0 0 7-7.2c.48-.35.9-.77 1.23-1.26Z" /><path d="M18.1 40a6.47 6.47 0 0 1-3.22-.84l-11.67-6.8A6.52 6.52 0 0 1 0 26.73V13.19a6.6 6.6 0 0 1 3.21-5.61L14.88.84a6.55 6.55 0 0 1 6.43 0l11.67 6.74a6.52 6.52 0 0 1 3.2 5.61v13.55a6.6 6.6 0 0 1-3.2 5.61L21.3 39.1c-.98.63-2.1.91-3.22.91Zm0-37.61c-.7 0-1.4.2-2.03.56L4.4 9.68a4.07 4.07 0 0 0-2.02 3.51v13.55c0 1.47.76 2.8 2.02 3.5l11.67 6.81c1.26.7 2.8.7 4.05 0l11.67-6.73a4.07 4.07 0 0 0 2.02-3.51V13.19c0-1.47-.76-2.8-2.02-3.5L20.12 2.87a4.12 4.12 0 0 0-2.03-.5Z" /></svg>