<svg width="197" height="132" viewBox="0 0 197 132" fill="none" xmlns="http://www.w3.org/2000/svg">
<path d="M98.5 132C92.4151 132 86.3301 130.47 81.0058 127.411L17.4942 90.3123C6.84556 84.193 0 72.3368 0 59.7158V-14.0983C0 -26.7193 6.84556 -38.193 17.4942 -44.6947L81.0058 -81.4105C91.6544 -87.5298 105.346 -87.5298 115.994 -81.4105L179.506 -44.6947C190.154 -38.5754 197 -26.7193 197 -14.0983V59.7158C197 72.3368 190.154 83.8105 179.506 90.3123L115.994 127.028C110.67 130.47 104.585 132 98.5 132ZM98.5 -72.9965C94.6969 -72.9965 90.8938 -71.8491 87.471 -69.9368L23.9595 -33.2211C17.1139 -29.3965 12.9305 -21.7474 12.9305 -14.0983V59.7158C12.9305 67.7474 17.1139 75.014 23.9595 78.8386L87.471 115.937C94.3166 119.761 102.683 119.761 109.529 115.937L173.041 79.2211C179.886 75.3965 184.07 67.7474 184.07 60.0983V-14.0983C184.07 -22.1298 179.886 -29.3965 173.041 -33.2211L109.529 -70.3193C106.106 -72.2316 102.303 -72.9965 98.5 -72.9965Z" fill="#FFD700"/>
</svg>
