<svg width="349" height="255" viewBox="0 0 349 255" fill="none" xmlns="http://www.w3.org/2000/svg">
<path d="M174.5 387C163.72 387 152.94 384.284 143.508 378.853L30.9923 312.995C12.1274 302.132 0 281.084 0 258.679V127.642C0 105.237 12.1274 84.8684 30.9923 73.3263L143.508 8.14737C162.373 -2.71579 186.627 -2.71579 205.492 8.14737L318.008 73.3263C336.873 84.1895 349 105.237 349 127.642V258.679C349 281.084 336.873 301.453 318.008 312.995L205.492 378.174C196.06 384.284 185.28 387 174.5 387ZM174.5 23.0842C167.763 23.0842 161.025 25.121 154.961 28.5158L42.4459 93.6947C30.3185 100.484 22.9073 114.063 22.9073 127.642V258.679C22.9073 272.937 30.3185 285.837 42.4459 292.626L154.961 358.484C167.089 365.274 181.911 365.274 194.039 358.484L306.554 293.305C318.681 286.516 326.093 272.937 326.093 259.358V127.642C326.093 113.384 318.681 100.484 306.554 93.6947L194.039 27.8368C187.975 24.4421 181.237 23.0842 174.5 23.0842Z" fill="#0057B8"/>
</svg>
