<svg width="19" height="19" fill="none"><path d="M18.6 9.71a11 11 0 0 0-.15-1.8H9.5v3.58h5.12a4.41 4.41 0 0 1-1.9 2.83v2.38h3.06A9.29 9.29 0 0 0 18.6 9.7Z" fill="#4285F4"/><path d="M9.5 19c2.57 0 4.71-.86 6.28-2.3l-3.06-2.38a5.73 5.73 0 0 1-8.55-3H1.02v2.44A9.49 9.49 0 0 0 9.5 19Z" fill="#34A853"/><path d="M4.17 11.31a5.51 5.51 0 0 1 0-3.62V5.24H1.02a9.39 9.39 0 0 0 0 8.52l3.15-2.45Z" fill="#FBBC05"/><path d="M9.5 3.76c1.4 0 2.65.48 3.64 1.43l2.7-2.71A9.08 9.08 0 0 0 9.5 0a9.49 9.49 0 0 0-8.48 5.24L4.17 7.7A5.67 5.67 0 0 1 9.5 3.76Z" fill="#EA4335"/></svg>