<svg width="65" height="65" fill="none"><circle cx="32.5" cy="32.5" r="32.5" fill="#E8E8E8"/><path d="M65 32.47a32.5 32.5 0 0 0-65 0c0 9.87 4.49 18.77 11.5 24.74.07.06.13.06.13.13.59.45 1.17.9 1.82 1.36.33.2.59.45.92.71a32.42 32.42 0 0 0 36.4 0c.32-.2.58-.45.9-.65.59-.45 1.24-.9 1.82-1.36.07-.06.13-.06.13-.13A33.05 33.05 0 0 0 65 32.47ZM32.5 60.9c-6.11 0-11.7-1.95-16.32-5.2.07-.52.2-1.03.33-1.55.39-1.41.96-2.77 1.69-4.03a14.3 14.3 0 0 1 2.6-3.31c.97-.98 2.14-1.88 3.31-2.6a16.86 16.86 0 0 1 8.39-2.2 17 17 0 0 1 11.9 4.73c1.49 1.5 2.66 3.25 3.5 5.26.46 1.17.79 2.4.98 3.7a28.56 28.56 0 0 1-16.38 5.2Zm-9.95-30.06a10.12 10.12 0 0 1-.84-4.16c0-1.43.26-2.86.84-4.16.59-1.3 1.37-2.47 2.34-3.44.98-.98 2.15-1.75 3.45-2.34 1.3-.58 2.73-.84 4.16-.84 1.5 0 2.86.26 4.16.84a11.6 11.6 0 0 1 3.45 2.34c.97.97 1.75 2.14 2.34 3.44.58 1.3.84 2.73.84 4.16a9.9 9.9 0 0 1-.84 4.15 11.54 11.54 0 0 1-2.35 3.45c-1 .98-2.16 1.77-3.44 2.33-2.69 1.1-5.7 1.1-8.38 0a11.53 11.53 0 0 1-3.45-2.33 10.26 10.26 0 0 1-2.27-3.45ZM52.73 52.4c0-.13-.07-.2-.07-.32a21.2 21.2 0 0 0-2.8-5.71 19.84 19.84 0 0 0-4.41-4.62 21.15 21.15 0 0 0-4.23-2.47c.68-.45 1.31-.97 1.88-1.55.97-.96 1.83-2.03 2.54-3.19a14.72 14.72 0 0 0 2.14-7.85 15.07 15.07 0 0 0-4.48-10.85 15.11 15.11 0 0 0-10.85-4.42 15.11 15.11 0 0 0-10.86 4.49 15.07 15.07 0 0 0-4.42 10.84c0 1.43.2 2.8.59 4.1.39 1.36.9 2.6 1.62 3.76a14.77 14.77 0 0 0 4.48 4.74 20.8 20.8 0 0 0-4.22 2.53 22.52 22.52 0 0 0-4.42 4.55 20.3 20.3 0 0 0-2.8 5.71c-.06.13-.06.26-.06.33a28.33 28.33 0 0 1-8.32-20A28.53 28.53 0 0 1 32.5 4.03a28.53 28.53 0 0 1 28.47 28.44c0 7.47-2.98 14.64-8.25 19.93Z" fill="#fff"/></svg>