<svg width="20" height="20" fill="none"><path d="M20 9.99A10 10 0 1 0 3.54 17.6c.02.02.04.02.04.04l.56.42c.1.06.18.14.28.22a9.98 9.98 0 0 0 11.2 0l.28-.2.56-.42c.02-.02.04-.02.04-.04 2.12-1.86 3.5-4.6 3.5-7.63Zm-10 8.75c-1.88 0-3.6-.6-5.02-1.6A5.21 5.21 0 0 1 6.4 14.4a5.05 5.05 0 0 1 3.6-1.48 5.23 5.23 0 0 1 3.66 1.46 5 5 0 0 1 1.38 2.76 8.79 8.79 0 0 1-5.04 1.6ZM6.94 9.5c-.18-.4-.26-.84-.26-1.28 0-.44.08-.88.26-1.28s.42-.76.72-1.06c.3-.3.66-.54 1.06-.71.4-.19.84-.27 1.28-.27.46 0 .88.08 1.28.27.4.17.76.42 1.06.71.3.3.54.66.72 1.06.18.4.26.84.26 1.28 0 .46-.08.88-.26 1.28-.17.4-.42.75-.72 1.06-.3.3-.67.55-1.06.72a3.4 3.4 0 0 1-2.58 0c-.4-.17-.75-.42-1.06-.72-.3-.3-.54-.66-.7-1.06Zm9.28 6.63-.02-.1a6.52 6.52 0 0 0-2.22-3.17 6.5 6.5 0 0 0-1.3-.76 5.25 5.25 0 0 0 1.36-1.46c.44-.73.67-1.57.66-2.42a4.64 4.64 0 0 0-4.72-4.7A4.65 4.65 0 0 0 5.46 9.5a4.6 4.6 0 0 0 1.88 2.62 6.4 6.4 0 0 0-2.66 2.18 6.25 6.25 0 0 0-.86 1.75c-.02.04-.02.08-.02.1A8.72 8.72 0 0 1 10 1.24a8.78 8.78 0 0 1 8.76 8.75c0 2.3-.92 4.5-2.54 6.13Z" /></svg>