<svg width="20" height="20" fill="none"><path d="M10 5.94a4.06 4.06 0 1 0 0 8.12 4.06 4.06 0 0 0 0-8.12ZM7.2 10a2.8 2.8 0 1 1 5.6 0 2.8 2.8 0 0 1-5.6 0Z" /><path d="M12.25 1.68c-.66-2.24-3.84-2.24-4.5 0l-.11.4a1.1 1.1 0 0 1-1.57.65l-.37-.2C3.65 1.4 1.41 3.65 2.53 5.7l.2.37a1.1 1.1 0 0 1-.65 1.57l-.4.11c-2.24.66-2.24 3.84 0 4.5l.4.11a1.1 1.1 0 0 1 .65 1.57l-.2.37c-1.12 2.05 1.12 4.29 3.17 3.17l.37-.2a1.1 1.1 0 0 1 1.57.65l.11.4c.66 2.24 3.84 2.24 4.5 0l.11-.4a1.1 1.1 0 0 1 1.57-.65l.37.2c2.05 1.12 4.29-1.12 3.17-3.17l-.2-.37a1.1 1.1 0 0 1 .65-1.57l.4-.11c2.24-.66 2.24-3.84 0-4.5l-.4-.11a1.1 1.1 0 0 1-.65-1.57l.2-.37c1.12-2.05-1.12-4.29-3.17-3.17l-.37.2a1.1 1.1 0 0 1-1.57-.65l-.11-.4Zm-3.3.35a1.1 1.1 0 0 1 2.1 0l.11.4a2.34 2.34 0 0 0 3.37 1.4l.36-.2c.96-.52 2 .52 1.48 1.48l-.2.36a2.34 2.34 0 0 0 1.4 3.37l.4.11a1.1 1.1 0 0 1 0 2.1l-.4.11a2.34 2.34 0 0 0-1.4 3.37l.2.36c.52.96-.52 2-1.48 1.48l-.36-.2a2.34 2.34 0 0 0-3.37 1.4l-.11.4a1.1 1.1 0 0 1-2.1 0l-.11-.4a2.34 2.34 0 0 0-3.37-1.4l-.36.2c-.96.52-2-.52-1.48-1.48l.2-.36a2.34 2.34 0 0 0-1.4-3.37l-.4-.11a1.1 1.1 0 0 1 0-2.1l.4-.12a2.34 2.34 0 0 0 1.4-3.36l-.2-.36c-.52-.96.52-2 1.48-1.48l.36.2a2.34 2.34 0 0 0 3.37-1.4l.11-.4Z" /></svg>