<svg width="309" height="116" fill="none" xmlns="http://www.w3.org/2000/svg"><path d="M74.71 91.64V116h-17.6V91.64H0v-8.62L54.95 0h19.76v75.9H86v15.74H74.71Zm-15.44-69.1h-.33l-36.2 54.02h35.53V50.87l1-28.33ZM297.71 91.64V116h-17.6V91.64H223v-8.62L277.95 0h19.76v75.9H309v15.74h-11.29Zm-15.44-69.1h-.33l-36.2 54.02h35.53V50.87l1-28.33ZM158.5 116c-3.24 0-6.49-.81-9.32-2.44l-33.86-19.74A18.9 18.9 0 0 1 106 77.54V38.26c0-6.72 3.65-12.82 9.32-16.28l33.86-19.54a19.02 19.02 0 0 1 18.64 0l33.86 19.54A18.9 18.9 0 0 1 211 38.26v39.28c0 6.71-3.65 12.82-9.32 16.28l-33.86 19.53a17.07 17.07 0 0 1-9.32 2.65Z" fill="#E8E8E8"/><path d="M154.15 83.2a4.36 4.36 0 0 0 4.32-.03 4.34 4.34 0 0 0 1.6-1.62 13.05 13.05 0 0 1 11.48-6.74 4.35 4.35 0 1 0 0-8.7 21.75 21.75 0 0 0-19.01 11.18 4.35 4.35 0 0 0 1.6 5.91Z" fill="#45463F"/><circle cx="169.5" cy="45.5" r="5.5" fill="#45463F"/><circle cx="141.5" cy="45.5" r="5.5" fill="#45463F"/></svg>