<svg width="300" height="302" viewBox="0 0 300 302" fill="none" xmlns="http://www.w3.org/2000/svg">
<g opacity="0.9">
<path opacity="0.9" d="M235.016 65.4048C214.514 44.8384 159.744 66.4354 112.684 113.643C65.6246 160.851 44.0953 215.793 64.5973 236.359C85.0993 256.926 139.869 235.329 186.929 188.121C233.989 140.913 255.518 85.9713 235.016 65.4048Z" stroke="#E8E8E8" stroke-width="2" stroke-miterlimit="10"/>
<path opacity="0.9" d="M246.059 76.4139C225.557 55.8474 170.787 77.4444 123.727 124.652C76.6677 171.86 55.1384 226.802 75.6404 247.368C96.1424 267.935 150.912 246.338 197.972 199.13C245.032 151.922 266.561 96.9804 246.059 76.4139Z" stroke="#E8E8E8" stroke-width="2" stroke-miterlimit="10"/>
<path opacity="0.9" d="M229.627 59.9002C209.125 39.3338 154.355 60.9308 107.295 108.139C60.2353 155.346 38.706 210.288 59.208 230.855C79.71 251.421 134.48 229.824 181.539 182.616C228.599 135.409 250.129 80.4667 229.627 59.9002Z" stroke="#E8E8E8" stroke-width="2" stroke-miterlimit="10"/>
<path opacity="0.9" d="M218.584 48.8911C198.082 28.3246 143.312 49.9216 96.2521 97.1294C49.1923 144.337 27.663 199.279 48.165 219.846C68.6671 240.412 123.437 218.815 170.497 171.607C217.556 124.399 239.086 69.4576 218.584 48.8911Z" stroke="#E8E8E8" stroke-width="2" stroke-miterlimit="10"/>
<path opacity="0.9" d="M213.062 43.2539C192.56 22.6874 137.791 44.2844 90.7308 91.4922C43.671 138.7 22.1417 193.642 42.6437 214.208C63.1458 234.775 117.915 213.178 164.975 165.97C212.035 118.762 233.564 63.8204 213.062 43.2539Z" stroke="#E8E8E8" stroke-width="2" stroke-miterlimit="10"/>
<path opacity="0.9" d="M223.973 54.3956C203.471 33.8291 148.701 55.4261 101.642 102.634C54.5818 149.842 33.0525 204.784 53.5545 225.35C74.0565 245.917 128.826 224.32 175.886 177.112C222.946 129.904 244.475 74.9621 223.973 54.3956Z" stroke="#E8E8E8" stroke-width="2" stroke-miterlimit="10"/>
<path opacity="0.9" d="M240.405 70.9093C219.903 50.3428 165.133 71.9399 118.074 119.148C71.0138 166.355 49.4845 221.297 69.9865 241.864C90.4886 262.43 145.258 240.833 192.318 193.625C239.378 146.418 260.907 91.4758 240.405 70.9093Z" stroke="#E8E8E8" stroke-width="2" stroke-miterlimit="10"/>
<path opacity="0.9" d="M262.491 92.9277C241.989 72.3612 187.219 93.9582 140.159 141.166C93.0995 188.374 71.5702 243.316 92.0722 263.882C112.574 284.449 167.344 262.852 214.404 215.644C261.463 168.436 282.993 113.494 262.491 92.9277Z" stroke="#E8E8E8" stroke-width="2" stroke-miterlimit="10"/>
<path opacity="0.9" d="M251.448 81.9186C230.946 61.3521 176.176 82.9491 129.117 130.157C82.0568 177.365 60.5274 232.307 81.0295 252.873C101.531 273.44 156.301 251.843 203.361 204.635C250.421 157.427 271.95 102.485 251.448 81.9186Z" stroke="#E8E8E8" stroke-width="2" stroke-miterlimit="10"/>
<path opacity="0.9" d="M256.969 87.2905C236.467 66.724 181.698 88.3211 134.638 135.529C87.578 182.737 66.0486 237.679 86.5507 258.245C107.053 278.811 161.822 257.214 208.882 210.007C255.942 162.799 277.471 107.857 256.969 87.2905Z" stroke="#E8E8E8" stroke-width="2" stroke-miterlimit="10"/>
<path opacity="0.9" d="M207.541 37.8818C187.039 17.3154 132.269 38.9124 85.2092 86.1202C38.1494 133.328 16.6201 188.27 37.1221 208.836C57.6242 229.403 112.394 207.806 159.454 160.598C206.513 113.39 228.043 58.4483 207.541 37.8818Z" stroke="#E8E8E8" stroke-width="2" stroke-miterlimit="10"/>
</g>
</svg>
