<svg width="209" height="117" viewBox="0 0 209 117" fill="none" xmlns="http://www.w3.org/2000/svg">
<path d="M104.5 52.1453L110.979 0V52.5641L124.146 1.67535L117.458 53.8206L136.895 4.81663L123.728 55.9148L149.017 9.84268L129.58 58.6373L160.512 16.1252L135.223 62.1974L171.171 23.8737L140.239 66.3858L180.576 32.8788L144.837 71.2024L189.145 42.9309L148.599 76.4379L196.042 54.0301L151.734 82.3016L201.685 65.9669L154.242 88.3747L205.656 78.5321L155.914 94.6573L208.164 91.3066L156.75 101.149L209 104.5L156.75 107.851L208.164 117.693L155.914 114.343L205.656 130.468L154.242 120.625L201.685 143.033L151.734 126.698L196.042 154.97L148.599 132.562L189.145 166.069L144.837 137.798L180.576 176.121L140.239 142.614L171.171 185.126L135.223 146.803L160.512 192.875L129.58 150.363L149.017 199.157L123.728 153.085L136.895 204.183L117.458 155.179L124.146 207.325L110.979 156.436V209L104.5 156.855L98.021 209V156.436L84.854 207.325L91.542 155.179L72.105 204.183L85.272 153.085L59.983 199.157L79.42 150.363L48.488 192.875L73.777 146.803L37.829 185.126L68.761 142.614L28.424 176.121L64.163 137.798L19.855 166.069L60.401 132.562L12.958 154.97L57.266 126.698L7.315 143.033L54.758 120.625L3.344 130.468L53.086 114.343L0.836 117.693L52.25 107.851L0 104.5L52.25 101.149L0.836 91.3066L53.086 94.6573L3.344 78.5321L54.758 88.3747L7.315 65.9669L57.266 82.3016L12.958 54.0301L60.401 76.4379L19.855 42.9309L64.163 71.2024L28.424 32.8788L68.761 66.3858L37.829 23.8737L73.777 62.1974L48.488 16.1252L79.42 58.6373L59.983 9.84268L85.272 55.9148L72.105 4.81663L91.542 53.8206L84.854 1.67535L98.021 52.5641V0L104.5 52.1453Z" fill="#F9F9F9" fill-opacity="0.1"/>
</svg>
