<svg width="22" height="15" fill="none"><path d="M11 3.13c-.4 0-.8.07-1.2.19A2.2 2.2 0 0 1 8.77 6.4a2.08 2.08 0 0 1-1.85-.12 4.46 4.46 0 0 0 1.68 4.8 4.2 4.2 0 0 0 5-.1 4.37 4.37 0 0 0 1.47-4.88 4.36 4.36 0 0 0-1.56-2.16 4.2 4.2 0 0 0-2.5-.81Zm10.87 3.8A12.23 12.23 0 0 0 11 0C6.3 0 2.2 2.8.13 6.93a1.29 1.29 0 0 0 0 1.14A12.23 12.23 0 0 0 11 15c4.7 0 8.8-2.8 10.87-6.93a1.29 1.29 0 0 0 0-1.14ZM11 13.13c-3.77 0-7.22-2.15-9.09-5.63A10.36 10.36 0 0 1 11 1.87c3.77 0 7.22 2.15 9.09 5.63A10.36 10.36 0 0 1 11 13.13Z" fill="#C4C4C4"/></svg>