<svg width="20" height="20" fill="none"><path d="M0 10.39v8.83c0 .43.35.78.78.78h1.57V9.61H.78a.78.78 0 0 0-.78.78Zm18.78.14c.41-.54.64-1.2.64-1.89 0-1.09-.61-2.12-1.6-2.7a1.64 1.64 0 0 0-.82-.22h-5.83l.15-2.98A2.58 2.58 0 0 0 9.74.2 2.58 2.58 0 0 0 8.71 0C7.45 0 6.33.85 6 2.07L3.92 9.6 3.9 20h11.46c.22 0 .44-.05.64-.13a3.12 3.12 0 0 0 1.77-3.78 3.12 3.12 0 0 0 .5-2.78 3.12 3.12 0 0 0 .5-2.78Zm-1.59-.85-.53.47.34.61a1.38 1.38 0 0 1-.3 1.7l-.54.47.34.62a1.38 1.38 0 0 1-.3 1.7l-.54.47.34.61c.1.2.17.43.16.67 0 .54-.32 1.03-.81 1.25h-9.7V9.87l2.03-7.34a1.07 1.07 0 0 1 1.03-.78c.18 0 .36.05.5.16.25.18.38.45.36.74l-.23 4.82h7.63c.43.26.7.7.7 1.17 0 .4-.17.78-.48 1.04Z" fill="#C4C4C4"/></svg>