<svg width="83" height="92" viewBox="0 0 83 92" fill="none" xmlns="http://www.w3.org/2000/svg">
<path d="M41.5 92C38.9363 92 36.3726 91.3544 34.1293 90.0632L7.37066 74.407C2.88417 71.8246 0 66.8211 0 61.4947V30.3439C0 25.0175 2.88417 20.1754 7.37066 17.4316L34.1293 1.93684C38.6158 -0.645614 44.3842 -0.645614 48.8707 1.93684L75.6293 17.4316C80.1158 20.014 83 25.0175 83 30.3439V61.4947C83 66.8211 80.1158 71.6632 75.6293 74.407L48.8707 89.9018C46.6274 91.3544 44.0637 92 41.5 92ZM41.5 5.48772C39.8977 5.48772 38.2954 5.97193 36.8533 6.77895L10.0946 22.2737C7.21043 23.8877 5.44788 27.1158 5.44788 30.3439V61.4947C5.44788 64.8842 7.21043 67.9509 10.0946 69.5649L36.8533 85.2211C39.7375 86.8351 43.2625 86.8351 46.1467 85.2211L72.9054 69.7263C75.7896 68.1123 77.5521 64.8842 77.5521 61.6561V30.3439C77.5521 26.9544 75.7896 23.8877 72.9054 22.2737L46.1467 6.61754C44.7046 5.81053 43.1023 5.48772 41.5 5.48772Z" fill="#E8E8E8"/>
<path d="M41.5 53.5556C40.61 53.5556 39.74 53.8325 38.9999 54.3514C38.2599 54.8703 37.6831 55.6078 37.3425 56.4707C37.002 57.3335 36.9128 58.283 37.0865 59.199C37.2601 60.1151 37.6887 60.9565 38.318 61.6169C38.9474 62.2773 39.7492 62.7271 40.6221 62.9093C41.495 63.0915 42.3998 62.998 43.2221 62.6405C44.0443 62.2831 44.7471 61.6779 45.2416 60.9013C45.7361 60.1247 46 59.2117 46 58.2778C46 57.0254 45.5259 55.8242 44.682 54.9387C43.8381 54.0531 42.6935 53.5556 41.5 53.5556ZM41.5 47.8889C42.4548 47.8889 43.3705 47.4909 44.0456 46.7824C44.7207 46.0739 45.1 45.113 45.1 44.1111V32.7778C45.1 31.7758 44.7207 30.815 44.0456 30.1065C43.3705 29.398 42.4548 29 41.5 29C40.5452 29 39.6295 29.398 38.9544 30.1065C38.2793 30.815 37.9 31.7758 37.9 32.7778V44.1111C37.9 45.113 38.2793 46.0739 38.9544 46.7824C39.6295 47.4909 40.5452 47.8889 41.5 47.8889Z" fill="#E8E8E8"/>
</svg>
