<svg width="64" height="64" viewBox="0 0 64 64" fill="none" xmlns="http://www.w3.org/2000/svg">
<path d="M25 19.8563H29.6187V41C29.6187 41.275 29.8437 41.5 30.1187 41.5H33.8688C34.1438 41.5 34.3688 41.275 34.3688 41V19.8563H39C39.4187 19.8563 39.65 19.375 39.3937 19.05L32.3937 10.1875C32.347 10.1277 32.2872 10.0794 32.219 10.0462C32.1508 10.0129 32.0759 9.99567 32 9.99567C31.9241 9.99567 31.8492 10.0129 31.781 10.0462C31.7128 10.0794 31.653 10.1277 31.6063 10.1875L24.6063 19.0438C24.35 19.375 24.5813 19.8563 25 19.8563V19.8563ZM54.875 39.125H51.125C50.85 39.125 50.625 39.35 50.625 39.625V49.25H13.375V39.625C13.375 39.35 13.15 39.125 12.875 39.125H9.125C8.85 39.125 8.625 39.35 8.625 39.625V52C8.625 53.1063 9.51875 54 10.625 54H53.375C54.4813 54 55.375 53.1063 55.375 52V39.625C55.375 39.35 55.15 39.125 54.875 39.125Z" fill="white"/>
</svg>
