<svg width="20" height="20" viewBox="0 0 20 20" fill="none" xmlns="http://www.w3.org/2000/svg">
<path d="M18.3653 3H9.57163C9.19074 3 8.93652 3.25378 8.93652 3.63511C8.93652 4.016 9.1903 4.27022 9.57163 4.27022H18.3653C18.7462 4.27022 19.0004 4.01644 19.0004 3.63511C19.0004 3.25378 18.6828 3 18.3653 3Z" fill="#45463F" stroke="#45463F" stroke-width="0.6"/>
<path d="M16.5551 6.80957H9.57066C9.18977 6.80957 8.93555 7.06335 8.93555 7.44468C8.93555 7.82557 9.18933 8.07979 9.57066 8.07979H16.5551C16.936 8.07979 17.1902 7.82601 17.1902 7.44468C17.1897 7.06335 16.8722 6.80957 16.5551 6.80957Z" fill="#45463F" stroke="#45463F" stroke-width="0.6"/>
<path d="M14.016 10.6191H9.57163C9.19074 10.6191 8.93652 10.8729 8.93652 11.2542C8.93652 11.6351 9.1903 11.8894 9.57163 11.8894H14.016C14.3969 11.8894 14.6511 11.6356 14.6511 11.2542C14.6511 10.8734 14.3336 10.6191 14.016 10.6191Z" fill="#45463F" stroke="#45463F" stroke-width="0.6"/>
<path d="M12.1111 14.4287H9.57163C9.19074 14.4287 8.93652 14.6825 8.93652 15.0638C8.93652 15.4447 9.1903 15.6989 9.57163 15.6989H12.1111C12.492 15.6989 12.7462 15.4452 12.7462 15.0638C12.7462 14.6825 12.4287 14.4287 12.1111 14.4287Z" fill="#45463F" stroke="#45463F" stroke-width="0.6"/>
<path d="M6.20603 13.0795L4.74581 14.5397V2.63541C4.74581 2.25453 4.49203 2.00031 4.1107 2.00031C3.72981 2.00031 3.47559 2.25408 3.47559 2.63541V14.5402L2.07921 13.0795C1.82543 12.8257 1.4441 12.8257 1.19033 13.0795C0.936563 13.3333 0.936551 13.7146 1.19033 13.9684L3.72981 16.5078C3.85692 16.635 4.04737 16.6983 4.17448 16.6983C4.30159 16.6983 4.49203 16.635 4.61914 16.5078L7.15862 13.9684C7.4124 13.7146 7.4124 13.3333 7.15862 13.0795C6.9044 12.8257 6.45979 12.8257 6.20603 13.0795Z" fill="#45463F" stroke="#45463F" stroke-width="0.6"/>
</svg>
